<?xml version="1.0" standalone="no"?>
<!DOCTYPE svg PUBLIC "-//W3C//DTD SVG 20010904//EN"
 "http://www.w3.org/TR/2001/REC-SVG-20010904/DTD/svg10.dtd">
<svg version="1.0" xmlns="http://www.w3.org/2000/svg"
 width="980.000000pt" height="980.000000pt" viewBox="0 0 980.000000 980.000000"
 preserveAspectRatio="xMidYMid meet">
<metadata>
Created by potrace 1.14, written by Peter Selinger 2001-2017
</metadata>
<g transform="translate(0.000000,980.000000) scale(0.100000,-0.100000)"
fill="#000000" stroke="none">
<path d="M4977 9543 c-5 -10 -5 -4113 0 -4113 2 0 14 11 26 24 12 13 74 79
137 146 63 68 122 131 130 140 14 17 219 236 270 289 14 15 50 54 80 86 30 33
112 121 181 195 70 74 141 151 159 170 17 19 57 62 88 95 30 33 85 92 121 131
73 77 281 301 377 404 34 36 72 77 85 91 13 15 71 77 129 139 58 62 113 122
123 133 19 22 18 22 -113 157 -3 3 -41 43 -85 90 -43 47 -111 119 -149 160
-145 155 -300 322 -316 340 -17 20 -220 237 -280 301 -19 20 -76 81 -126 135
-51 55 -105 113 -120 130 -16 16 -60 64 -98 105 -38 41 -101 108 -140 150
-180 192 -218 233 -316 338 -58 63 -117 127 -131 143 -15 16 -29 26 -32 21z"/>
<path d="M3085 6780 c803 -803 1461 -1460 1463 -1460 2 0 1 66 -2 148 -9 228
-16 404 -21 557 -3 77 -7 196 -10 265 -2 69 -7 199 -10 290 -3 91 -7 219 -10
285 -3 66 -7 194 -10 285 -3 91 -8 215 -10 275 -2 61 -7 189 -10 285 -8 244
-16 424 -18 426 -2 3 -228 12 -442 19 -77 2 -203 7 -280 10 -77 3 -203 7 -280
10 -77 3 -194 7 -260 10 -66 3 -194 7 -285 10 -91 3 -214 7 -275 10 -60 2
-189 7 -285 10 -185 6 -333 11 -570 20 l-145 5 1460 -1460z"/>
<path d="M6807 6658 l-1458 -1459 198 6 c109 3 245 8 303 10 58 2 188 7 290
10 102 4 230 8 285 11 55 2 174 6 265 9 216 7 414 14 575 20 72 3 198 7 280
10 83 3 215 7 295 11 80 3 184 7 233 8 48 2 90 5 93 8 6 7 11 95 19 348 3 113
8 248 10 300 2 52 7 167 10 255 3 88 8 219 10 290 3 72 7 200 10 285 6 165 11
307 20 540 18 465 28 800 24 799 -2 -1 -660 -658 -1462 -1461z"/>
<path d="M2223 6833 c-17 -16 -79 -73 -138 -128 -59 -55 -119 -111 -134 -124
-14 -13 -82 -77 -151 -141 -69 -64 -137 -128 -151 -141 -15 -13 -78 -72 -140
-130 -63 -59 -128 -120 -145 -135 -46 -43 -262 -244 -303 -283 -84 -78 -255
-237 -271 -251 -20 -17 -381 -355 -466 -435 -17 -16 -55 -51 -83 -77 l-51 -48
2067 0 2068 1 -65 61 c-36 33 -114 106 -174 162 -60 55 -125 116 -145 135 -20
18 -63 58 -96 88 -33 31 -94 88 -136 127 -152 144 -330 309 -349 326 -20 18
-68 62 -280 260 -69 64 -147 138 -175 163 -27 25 -75 69 -106 99 -31 29 -107
100 -169 158 -63 58 -150 139 -194 181 -115 107 -173 159 -178 159 -2 0 -18
-12 -35 -27z"/>
<path d="M4814 5181 c-134 -54 -216 -169 -216 -306 0 -281 333 -427 543 -238
81 73 122 209 94 313 -40 150 -153 241 -305 245 -50 2 -88 -3 -116 -14z"/>
<path d="M5468 4769 c-6 -4 -5 -10 5 -15 8 -5 68 -59 133 -120 66 -61 135
-126 154 -144 32 -29 155 -144 345 -320 38 -36 79 -74 90 -85 11 -11 74 -69
140 -130 65 -60 133 -123 150 -140 17 -16 80 -75 139 -130 60 -55 123 -113
140 -130 18 -16 88 -82 156 -145 68 -63 136 -126 150 -140 15 -14 82 -77 150
-140 68 -63 157 -146 197 -184 40 -38 81 -75 91 -82 20 -14 7 -25 246 199 65
62 128 120 140 130 11 10 70 64 129 120 60 56 126 117 146 136 20 18 65 61
101 95 58 53 226 210 330 306 60 55 291 272 360 337 36 34 75 71 88 82 13 11
78 71 145 134 67 63 134 125 148 138 155 142 238 223 234 227 -8 8 -4095 8
-4107 1z"/>
<path d="M4337 4514 c-1 -1 -94 -5 -207 -8 -113 -4 -252 -9 -310 -11 -58 -2
-180 -7 -272 -10 -92 -3 -213 -8 -270 -10 -57 -2 -188 -7 -293 -10 -104 -4
-228 -8 -275 -10 -47 -2 -179 -7 -295 -10 -115 -4 -237 -9 -270 -10 -33 -1
-166 -6 -295 -10 -129 -4 -236 -8 -237 -9 -3 -3 -12 -175 -18 -371 -6 -177
-10 -296 -20 -575 -11 -297 -13 -363 -20 -550 -3 -102 -8 -230 -10 -285 -11
-284 -22 -591 -30 -845 l-6 -195 1460 1460 c804 803 1461 1460 1461 1461 0 2
-91 -1 -93 -2z"/>
<path d="M5234 4288 c3 -57 8 -184 11 -283 3 -99 8 -225 10 -280 2 -55 7 -188
10 -295 4 -107 8 -233 10 -280 2 -47 7 -168 10 -270 3 -102 7 -232 10 -290 2
-58 7 -186 10 -285 3 -99 8 -229 10 -290 3 -60 7 -182 10 -270 4 -96 11 -162
17 -166 6 -4 59 -8 117 -9 58 -1 142 -3 186 -5 44 -2 163 -6 265 -10 102 -3
230 -8 285 -10 55 -2 177 -7 270 -10 94 -3 222 -7 285 -10 63 -3 180 -7 260
-10 80 -2 210 -7 290 -10 80 -3 199 -7 265 -10 101 -3 301 -11 533 -20 28 -1
52 0 52 2 0 7 -2907 2913 -2914 2913 -3 0 -4 -46 -2 -102z"/>
<path d="M4760 4243 c-39 -44 -223 -242 -280 -302 -14 -14 -79 -84 -145 -156
-66 -71 -129 -139 -140 -151 -99 -106 -240 -257 -255 -274 -15 -18 -91 -99
-300 -321 -19 -20 -78 -83 -130 -140 -52 -56 -108 -117 -125 -134 -40 -43
-226 -242 -261 -280 -15 -16 -75 -81 -133 -144 -58 -62 -105 -116 -103 -120 2
-3 41 -47 86 -96 89 -96 95 -103 250 -269 55 -59 112 -120 126 -135 23 -24
201 -216 290 -311 19 -21 82 -89 140 -151 58 -62 139 -150 180 -194 42 -44
103 -109 135 -144 33 -36 74 -79 90 -96 55 -59 240 -257 264 -284 58 -63 241
-260 298 -320 l63 -66 0 2068 c0 1137 -2 2067 -4 2067 -2 0 -23 -21 -46 -47z"/>
</g>
</svg>
